<svg xmlns="http://www.w3.org/2000/svg" xmlns:xlink="http://www.w3.org/1999/xlink" viewBox="0,0,256,256" width="48px" height="48px" fill-rule="nonzero"><defs><linearGradient x1="17.151" y1="8.498" x2="29.996" y2="37.571" gradientUnits="userSpaceOnUse" id="color-1"><stop offset="0" stop-color="#f09701"></stop><stop offset="1" stop-color="#e36001"></stop></linearGradient><linearGradient x1="1.319" y1="44.651" x2="25.671" y2="1.059" gradientUnits="userSpaceOnUse" id="color-2"><stop offset="0" stop-color="#a1aab3"></stop><stop offset="1" stop-color="#8f979e"></stop></linearGradient></defs><g fill="#242938" fill-rule="nonzero" stroke="none" stroke-width="1" stroke-linecap="butt" stroke-linejoin="miter" stroke-miterlimit="10" stroke-dasharray="" stroke-dashoffset="0" font-family="none" font-weight="none" font-size="none" text-anchor="none" style="mix-blend-mode: normal"><path d="M0,256v-256h256v256z" id="bgRectangle"></path></g><g fill="none" fill-rule="nonzero" stroke="none" stroke-width="1" stroke-linecap="butt" stroke-linejoin="miter" stroke-miterlimit="10" stroke-dasharray="" stroke-dashoffset="0" font-family="none" font-weight="none" font-size="none" text-anchor="none" style="mix-blend-mode: normal"><g transform="scale(5.33333,5.33333)"><path d="M8.108,18.006c2.426,-6.427 8.616,-11.006 15.892,-11.006c7.276,0 13.466,4.579 15.892,11.006c-3.239,-3.406 -9.135,-5.693 -15.892,-5.693c-6.757,0 -12.653,2.287 -15.892,5.693zM24,35.688c-6.757,0 -12.653,-2.287 -15.892,-5.693c2.426,6.426 8.616,11.005 15.892,11.005c7.276,0 13.466,-4.579 15.892,-11.006c-3.239,3.406 -9.135,5.694 -15.892,5.694z" fill="url(#color-1)"></path><path d="M39.512,4.744c0,1.515 -1.228,2.744 -2.744,2.744c-1.516,0 -2.744,-1.228 -2.744,-2.744c0,-1.516 1.229,-2.744 2.744,-2.744c1.515,0 2.744,1.228 2.744,2.744zM10.976,40.415c-1.818,0 -3.293,1.474 -3.293,3.293c0,1.818 1.474,3.293 3.293,3.293c1.819,0 3.293,-1.474 3.293,-3.293c-0.001,-1.819 -1.475,-3.293 -3.293,-3.293zM7.683,6.39c-1.212,0 -2.195,0.983 -2.195,2.195c0,1.212 0.983,2.195 2.195,2.195c1.212,0 2.195,-0.983 2.195,-2.195c0,-1.212 -0.983,-2.195 -2.195,-2.195z" fill="url(#color-2)"></path></g></g></svg>